<?xml version="1.0" standalone="no"?>
<!DOCTYPE svg PUBLIC "-//W3C//DTD SVG 20010904//EN"
 "http://www.w3.org/TR/2001/REC-SVG-20010904/DTD/svg10.dtd">
<svg version="1.0" xmlns="http://www.w3.org/2000/svg"
 width="260.000000pt" height="260.000000pt" viewBox="0 0 260.000000 260.000000"
 preserveAspectRatio="xMidYMid meet">
<metadata>
Created by potrace 1.14, written by Peter Selinger 2001-2017
</metadata>
<g transform="translate(0.000000,260.000000) scale(0.100000,-0.100000)"
fill="#000000" stroke="none">
<path d="M2140 1965 l0 -335 -295 2 c-162 1 -298 -1 -301 -4 -3 -4 -5 -134 -5
-291 0 -259 -2 -285 -17 -289 -9 -2 -146 -4 -304 -3 l-288 0 0 -292 0 -293
-315 0 -315 0 0 -85 0 -85 395 0 395 0 0 293 0 293 303 0 302 0 2 269 c1 149
2 281 2 295 l1 25 300 -1 300 0 0 418 0 418 -80 0 -80 0 0 -335z"/>
</g>
</svg>
